<?xml version="1.0" encoding="UTF-8" standalone="no"?>
<svg
   xmlns:dc="http://purl.org/dc/elements/1.1/"
   xmlns:cc="http://creativecommons.org/ns#"
   xmlns:rdf="http://www.w3.org/1999/02/22-rdf-syntax-ns#"
   xmlns:svg="http://www.w3.org/2000/svg"
   xmlns="http://www.w3.org/2000/svg"
   xmlns:sodipodi="http://sodipodi.sourceforge.net/DTD/sodipodi-0.dtd"
   xmlns:inkscape="http://www.inkscape.org/namespaces/inkscape"
   data-name="Layer 1"
   viewBox="0 0 59.999996 53.97353"
   x="0px"
   y="0px"
   version="1.1"
   id="svg10"
   sodipodi:docname="Post_office_savings_bank_Icon.svg"
   width="59"
   height="53.97353"
   inkscape:version="0.92.3 (2405546, 2018-03-11)">
  <metadata
     id="metadata16">
    <rdf:RDF>
      <cc:Work
         rdf:about="">
        <dc:format>image/svg+xml</dc:format>
        <dc:type
           rdf:resource="http://purl.org/dc/dcmitype/StillImage" />
        <dc:title>icon</dc:title>
      </cc:Work>
    </rdf:RDF>
  </metadata>
  <defs
     id="defs14" />
  <sodipodi:namedview
     pagecolor="#ffffff"
     bordercolor="#666666"
     borderopacity="1"
     objecttolerance="10"
     gridtolerance="10"
     guidetolerance="10"
     inkscape:pageopacity="0"
     inkscape:pageshadow="2"
     inkscape:window-width="1920"
     inkscape:window-height="1017"
     id="namedview12"
     showgrid="false"
     fit-margin-top="0"
     fit-margin-left="0"
     fit-margin-right="0"
     fit-margin-bottom="0"
     inkscape:zoom="11.8"
     inkscape:cx="21.52626"
     inkscape:cy="27.759179"
     inkscape:window-x="-8"
     inkscape:window-y="-8"
     inkscape:window-maximized="1"
     inkscape:current-layer="svg10" />
  <title
     id="title2">icon</title>
  <path
     d="m 33.450264,0.44282389 c -0.845472,0 -1.563194,0.29500844 -2.153059,0.88486801 -0.589864,0.5898694 -0.884761,1.3074778 -0.88476,2.152953 0,0.8454654 0.294896,1.5631918 0.88476,2.1530514 0.589865,0.5898694 1.307587,0.8847598 2.153059,0.8847598 0.845473,0 1.57301,-0.2948904 2.182537,-0.8847598 0.609525,-0.5898596 0.914237,-1.3174023 0.914237,-2.1825296 0,-0.8258133 -0.304712,-1.5336054 -0.914237,-2.1234748 C 35.023274,0.73783233 34.295737,0.44282389 33.450264,0.44282389 Z M 11.984702,4.8244369 C 11.794226,4.8234533 11.60558,4.8373219 11.418789,4.8668296 10.671628,4.9848015 10.042463,5.3190651 9.5312476,5.8696106 8.7840862,6.616766 8.4300761,7.5802033 8.4694005,8.7599323 L 9.2362528,14.7765 C 8.7643614,15.484341 7.9779342,16.821415 6.8768543,18.787624 L 6.0510482,20.262263 3.8095581,20.203346 H 3.514563 c -0.9437827,0.117972 -1.7007651,0.550506 -2.2709672,1.297671 -0.57020202,0.747156 -0.81591125,1.612332 -0.73726269,2.595431 l 0.17686204,8.9069 c -0.0393243,0.943785 0.26549918,1.740139 0.91434975,2.388985 0.6488507,0.648855 1.4254628,0.973303 2.3299212,0.973303 h 2.772414 c 1.1404038,1.533644 2.6149968,3.165619 4.4239139,4.895883 1.730268,1.690951 3.244346,2.968901 4.542047,3.834038 v 4.777971 c -0.07865,0.983109 0.226062,1.838351 0.914237,2.565855 0.688175,0.727503 1.56316,1.091323 2.624916,1.091323 h 6.075639 c 0.157297,0 0.334302,-0.01977 0.530923,-0.05911 0.747123,-0.19662 1.356584,-0.579965 1.828475,-1.150173 0.471891,-0.570197 0.766787,-1.209285 0.88476,-1.917127 l 0.05907,-1.238705 h 2.182423 c 1.966215,0 4.443724,-0.03925 7.432369,-0.117913 v 0.943717 c -0.07865,0.904461 0.196617,1.710632 0.825806,2.418463 0.747161,0.747165 1.671221,1.081429 2.772302,1.002781 h 6.252613 c 1.101079,-0.157296 1.926879,-0.648826 2.477418,-1.474639 0.511217,-0.707831 0.70785,-1.49438 0.589878,-2.359507 l -0.05896,-5.721687 c 3.027969,-2.28081 5.24973,-4.856471 6.665404,-7.727141 1.297701,-2.634725 1.887605,-5.387502 1.769633,-8.258181 l -0.176978,-2.713347 c -0.03932,-0.629184 -0.07859,-1.042086 -0.117904,-1.238706 l -0.05906,-0.235934 c -0.39325,-2.477429 -1.27805,-4.758298 -2.654399,-6.842489 -1.572971,-2.359457 -3.686655,-4.36495 -6.341044,-6.016567 -2.654389,-1.6516267 -5.515241,-2.8903219 -8.582536,-3.7161352 -0.432566,-0.1179719 -0.85528,-0.058917 -1.268185,0.1769776 -0.412905,0.2359438 -0.678357,0.5702172 -0.79633,1.0027809 -0.393243,1.4549966 -1.199412,2.6543287 -2.418464,3.5981037 -1.219052,0.943786 -2.595385,1.415683 -4.129032,1.415683 -1.533647,0 -2.909978,-0.471897 -4.129031,-1.415683 C 27.600732,10.942393 26.794562,9.7233209 26.401319,8.2289997 26.283347,7.7964261 26.02771,7.4622707 25.634468,7.2263269 25.241225,6.9903831 24.808696,6.9116368 24.336804,6.9902847 22.370591,7.4621822 20.541987,8.0520811 18.851043,8.7599225 18.18253,8.0127572 17.317359,7.304965 16.255604,6.6364477 15.39047,6.0859121 14.554856,5.623821 13.748708,5.2502433 13.144097,4.9700575 12.556131,4.828086 11.9847,4.8244073 Z m 7.780696,14.6120421 c -0.845471,0 -1.563082,0.304825 -2.152946,0.914346 -0.589864,0.609532 -0.884873,1.32714 -0.884873,2.152953 0,0.825804 0.295009,1.54353 0.884873,2.153052 0.589864,0.609531 1.307475,0.914238 2.152946,0.914238 0.845473,0 1.57301,-0.304707 2.182537,-0.914238 0.609526,-0.609522 0.914237,-1.327248 0.914237,-2.153052 0,-0.825813 -0.304711,-1.543421 -0.914237,-2.152953 -0.609527,-0.609521 -1.337064,-0.914346 -2.182537,-0.914346 z"
     id="path4"
     inkscape:connector-curvature="0"
     style="opacity:1;fill:none;stroke:#b02925;stroke-width:0.98513997;stroke-linecap:round;stroke-miterlimit:4;stroke-dasharray:none;stroke-opacity:1"
     sodipodi:nodetypes="scccscscscccccccccccccsccccsssccccscccccccccccccccccccsccsccccccscscscscs" />
</svg>
